<?xml version="1.0" encoding="utf-8"?>
<svg viewBox="0 0 500 500" xmlns="http://www.w3.org/2000/svg">
  <linearGradient y2="800" x2="400" y1="0" x1="400" gradientUnits="userSpaceOnUse" id="a" gradientTransform="matrix(0.619779, 0, 0, 0.620445, -0.941514, 2.263443)">
    <stop offset="0" stop-color="#0ed4fc"/>
    <stop offset="1" stop-color="#0c57ef"/>
  </linearGradient>
  <path d="M 394.725 2.263 L 99.215 2.263 C 43.868 2.263 -0.942 47.122 -0.942 102.528 L -0.942 398.418 C -0.942 453.762 43.868 498.62 99.215 498.62 L 394.787 498.62 C 450.073 498.62 494.944 453.762 494.944 398.357 L 494.944 102.528 C 494.881 47.122 450.073 2.263 394.725 2.263 Z" fill="url(#a)" style=""/>
  <path d="M 244.863 116.302 L 254.903 98.929 C 261.101 88.072 274.923 84.412 285.768 90.615 C 296.614 96.82 300.27 110.655 294.075 121.513 L 197.325 289.157 L 267.299 289.157 C 289.982 289.157 302.689 315.838 292.834 334.325 L 87.687 334.325 C 75.168 334.325 65.127 324.274 65.127 311.741 C 65.127 299.208 75.168 289.157 87.687 289.157 L 145.202 289.157 L 218.833 161.408 L 195.838 121.451 C 189.641 110.594 193.298 96.881 204.143 90.554 C 214.989 84.348 228.687 88.01 235.009 98.867 L 244.863 116.302 Z M 157.847 357.593 L 136.154 395.255 C 129.956 406.113 116.135 409.773 105.288 403.569 C 94.443 397.363 90.787 383.527 96.983 372.67 L 113.098 344.75 C 131.32 339.103 146.133 343.446 157.847 357.593 Z M 344.646 289.281 L 403.341 289.281 C 415.86 289.281 425.9 299.332 425.9 311.866 C 425.9 324.399 415.86 334.45 403.341 334.45 L 370.741 334.45 L 392.742 372.67 C 398.94 383.527 395.284 397.239 384.437 403.569 C 373.591 409.773 359.893 406.113 353.573 395.255 C 316.509 330.914 288.681 282.766 270.212 250.69 C 251.309 218.055 264.82 185.296 278.145 174.189 C 292.958 199.627 315.084 238.033 344.646 289.281 Z" fill="#fff" style=""/>
</svg>