<svg id="Layer_1" data-name="Layer 1" xmlns="http://www.w3.org/2000/svg" viewBox="0 0 561.99 465.44"><defs><style>.cls-1{fill:#ebebeb;}.cls-2{fill:#dbdbdb;}.cls-3{fill:#fff;}.cls-4{fill:#c7c7c7;}.cls-5{fill:#263238;}.cls-6{fill:#ffc4c0;}.cls-13,.cls-7{fill:#6e00fe;}.cls-10,.cls-8{opacity:0.1;}.cls-11,.cls-8{isolation:isolate;}.cls-9{fill:none;}.cls-11{opacity:0.06;}.cls-12{fill:#455a64;}.cls-13{font-size:18px;font-family:MyriadPro-Regular, Myriad Pro;}.cls-14{letter-spacing:-0.01em;}.cls-15{letter-spacing:-0.01em;}.cls-16{letter-spacing:0em;}.cls-17{letter-spacing:-0.04em;}.cls-18{letter-spacing:-0.04em;}.cls-19{letter-spacing:0em;}.cls-20{letter-spacing:-0.01em;}.cls-21{letter-spacing:-0.01em;}.cls-22{letter-spacing:-0.01em;}.cls-23{letter-spacing:-0.02em;}.cls-24{letter-spacing:0.02em;}.cls-25{letter-spacing:-0.04em;}.cls-26{letter-spacing:0em;}.cls-27{letter-spacing:-0.01em;}.cls-28{letter-spacing:-0.01em;}.cls-29{letter-spacing:-0.01em;}.cls-30{letter-spacing:-0.01em;}.cls-31{letter-spacing:0em;}</style></defs><g id="freepik--background-complete--inject-40"><rect class="cls-1" x="20.12" y="61.99" width="35.16" height="11.19"/><rect class="cls-1" x="262.11" y="194.51" width="35.16" height="11.19"/><path class="cls-1" d="M47.06,58c-5.84.1-20.81.35-26.45.42H11.9l.46-.46V69.18l-.5-.5c5.84,0,20.73.08,26.37.16L47,69l-.24.23L47,58Zm0,0,.23,11.19v.24h-.24c-4.39.06-13.2.16-17.58.19l-17.58.07h-.5V57.58h9.32c5.6.06,20.5.31,26.29.41Z" transform="translate(-11.39 -10.15)"/><path class="cls-1" d="M146.55,299.1c-5.84.1-20.81.35-26.45.41h-8.71l.46-.45v11.19l-.5-.5c5.84,0,20.73.07,26.37.15l8.79.11-.24.24.24-11.19Zm0,0,.24,11.19v.23h-.24c-4.39,0-13.19.16-17.58.19l-17.58.07h-.5V298.63h.45l8.87.05c5.6.06,20.51.31,26.29.41Z" transform="translate(-11.39 -10.15)"/><path class="cls-1" d="M126.94,285c-5.84.1-20.81.35-26.45.41H91.78l.46-.45v11.19l-.5-.5c5.84,0,20.73.07,26.37.15l8.79.11-.24.24.24-11.19Zm0,0,.24,11.19v.23h-.24c-4.39.05-13.2.16-17.58.19l-17.58.07h-.5V284.5h9.33c5.6.06,20.5.31,26.29.41Z" transform="translate(-11.39 -10.15)"/><rect class="cls-1" x="60.86" y="288.93" width="35.16" height="11.19"/><rect class="cls-1" x="379.03" y="47.88" width="35.16" height="11.19"/><rect class="cls-1" x="359.42" y="393.43" width="35.16" height="11.19"/><path class="cls-1" d="M425.58,389.47c-5.84.1-20.81.35-26.45.42h-8.71l.46-.46v11.19l-.5-.5c5.84,0,20.73.08,26.37.16l8.79.11-.24.23.24-11.19Zm0,0,.24,11.19v.24h-.24c-4.39.06-13.19.16-17.58.2l-17.58.06h-.5v-.51l.05-11.19V389h9.32c5.6.06,20.51.32,26.29.41Z" transform="translate(-11.39 -10.15)"/><path class="cls-1" d="M66.67,403.58c-5.84.1-20.81.35-26.45.42H31.51l.46-.46v11.19l-.5-.5,17.58.07c4.38,0,13.2.14,17.58.2l-.24.23.24-11.19Zm0,0,.24,11.19V415h-.24c-4.39.06-13.2.16-17.58.2l-17.58.06H31V403.1h9.32c5.6.06,20.5.32,26.29.41Z" transform="translate(-11.39 -10.15)"/><path class="cls-1" d="M170.81,133.25l-1.82,13a9.66,9.66,0,0,1-10.71,8.49c-.16,0-.31,0-.47-.06a9.93,9.93,0,0,1-8.42-11.17l2.91-20.8c0-.2.23-.17.26-.37-.17-.23-.17-.23-.15-.43a10.19,10.19,0,0,1,11.17-8.43,22.62,22.62,0,1,0,6.82-44.72l-.55-.08A22.35,22.35,0,0,0,149.11,77a10,10,0,0,1-14,1.74l-.07,0a9.83,9.83,0,0,1-1.56-13.81l0-.06a42.44,42.44,0,1,1,37.32,68.43ZM164.68,177l-.51,3.6a9.66,9.66,0,0,1-10.67,8.53l-.5-.07a9.91,9.91,0,0,1-8.42-11.17l.5-3.6a10,10,0,0,1,11.17-8.42,9.78,9.78,0,0,1,8.46,10.94Z" transform="translate(-11.39 -10.15)"/><path class="cls-1" d="M73.93,195.49l2.91,10.61a8.07,8.07,0,0,1-5.39,10.07l-.4.11a8.3,8.3,0,0,1-10.18-5.78l-4.67-17c0-.15.13-.2.08-.37-.21-.11-.21-.11-.26-.28a8.53,8.53,0,0,1,5.79-10.18,18.94,18.94,0,1,0-8.48-36.92c-.54.12-1.06.27-1.59.44a18.69,18.69,0,0,0-13.17,13.27,8.34,8.34,0,0,1-10.15,6l-.13,0a8.25,8.25,0,0,1-5.78-10.12v0a35.53,35.53,0,1,1,51.4,40.2Zm9.82,35.7.81,2.93a8.09,8.09,0,0,1-5.41,10.08l-.41.11a8.32,8.32,0,0,1-10.18-5.79l-.82-2.94a8.42,8.42,0,0,1,5.79-10.18A8.2,8.2,0,0,1,83.69,231a1.6,1.6,0,0,1,0,.21Z" transform="translate(-11.39 -10.15)"/><path class="cls-2" d="M125.66,243.19l-.43,8.14a6,6,0,0,1-6.2,5.79l-.29,0a6.14,6.14,0,0,1-5.8-6.45l.68-13c0-.12.14-.11.15-.24s-.13-.13-.12-.26a6.32,6.32,0,0,1,6.45-5.81,14,14,0,1,0,1.49-28h0a13.87,13.87,0,0,0-12.38,6.25,6.18,6.18,0,0,1-8.54,1.86l-.09-.06a6.11,6.11,0,0,1-1.7-8.46l0,0a26.34,26.34,0,1,1,26.73,40.31Zm-1.45,27.41-.12,2.25a6,6,0,0,1-6.16,5.82h-.3a6.15,6.15,0,0,1-5.8-6.46L112,270a6.24,6.24,0,0,1,6.45-5.81,6.07,6.07,0,0,1,5.82,6.31A.76.76,0,0,1,124.21,270.6Z" transform="translate(-11.39 -10.15)"/><rect class="cls-3" x="275.26" y="85.13" width="80.02" height="80.02"/><path class="cls-2" d="M282.48,91.1v88.34h88.35V91.1Zm84.19,84.18h-80v-80h80Z" transform="translate(-11.39 -10.15)"/><rect class="cls-1" x="287.14" y="121.98" width="62.37" height="27.66"/><rect class="cls-4" x="299.28" y="109.16" width="31.96" height="31.96"/><rect class="cls-4" x="359.44" y="80.96" width="3.41" height="88.35"/><rect class="cls-3" x="316.61" y="202.72" width="80.02" height="80.02"/><rect class="cls-4" x="330.37" y="215.52" width="20.89" height="60.36"/><path class="cls-2" d="M323.84,208.7v88.4h88.34V208.7ZM408,292.89H328v-80h80Z" transform="translate(-11.39 -10.15)"/><rect class="cls-1" x="340.65" y="226.75" width="31.95" height="31.95"/><rect class="cls-4" x="400.8" y="198.55" width="3.41" height="88.35"/></g><g id="freepik--Table--inject-40"><polygon class="cls-5" points="36.05 427.59 86.69 427.35 137.32 427.26 238.6 427.09 339.88 427.26 390.52 427.35 441.17 427.59 390.52 427.83 339.88 427.92 238.6 428.09 137.32 427.92 86.69 427.83 36.05 427.59"/></g><g id="freepik--Character--inject-40"><path class="cls-6" d="M233.71,246.51c50.46,52.73,113.29,163,100.94,185-13.76,24.47-84-49.43-83.69-53.68.25-3.21-23.85-70-42.17-118.53S221.23,233.47,233.71,246.51Z" transform="translate(-11.39 -10.15)"/><path class="cls-7" d="M250.48,377.85c-2.08-7.13-34.91-95.17-44.26-123s-.17-36.26,27.34-10.48,87.37,111.39,100.63,156.55c12.78,43.5-9.51,43.16-38.62,22.76C271.73,407,250.48,377.85,250.48,377.85Z" transform="translate(-11.39 -10.15)"/><path class="cls-3" d="M204,233c-.19-.07-.38-.14-.58-.23a4,4,0,0,1,.31-.71c.38.15.77.29,1.16.42,3.15,1,7,1.33,9.77-.84a6.05,6.05,0,0,0,.86-.82l.76.38C213.47,234.55,208.05,234.45,204,233Zm21.75,4.6L225,237q-.66.33-1.32.6c-6.3,2.77-14.08,5.56-19.53,10.24l.24,1a38.64,38.64,0,0,1,9.64-6.1C217.87,240.84,221.93,239.37,225.76,237.57Zm7,18.76a52.69,52.69,0,0,1,6.16-6.6c-.2-.22-.41-.43-.61-.64-5.75,5-9.87,12.64-15.34,17.49a26.43,26.43,0,0,1-10.56,6c.09.26.18.52.28.78a24.81,24.81,0,0,0,7.61-3.67c5.17-3.51,8.63-8.56,12.47-13.4Zm28.41,19.8c-8.32,11.29-23.41,14-36.65,16-1.6.24-3.2.5-4.8.82.11.29.21.59.32.89,5.59-1.14,11.34-1.62,16.9-2.89,9.27-2.12,19-6.51,24.81-14.07h0Zm11.33,97.33c-5.72-1.43-10.92.47-15.95,3.13-1.65.88-3.32,1.81-5,2.68l.57.74c6.78-3.49,13.31-7.84,21.12-5.3,2.55.83,5,2.46,6,5,1.3,3.31-.16,6.76-2.47,9.21-3.23,3.41-7.64,4.77-11.91,6.38l.74.83,3.69-1.44c5.09-2,11.07-5.72,11.44-11.84.27-4.93-3.75-8.28-8.22-9.39Zm-19.9-61c4-5.69,7.75-11.6,11.78-17.3,1.74-2.47,3.57-5,5.57-7.37l-.57-.77c-1.07,1.26-2.08,2.55-3.06,3.85-4.06,5.39-7.7,11.08-11.48,16.66-5.7,8.41-12.39,17.88-21.17,23.71.11.31.22.61.34.92,7.52-5,13.57-12.64,18.6-19.71Zm2,15a13.63,13.63,0,0,0,5.6,12.81c4.66,3.2,9.87,1.23,13.18-2.87,2-2.42,3.37-5.2,5.12-7.76a32.6,32.6,0,0,1,7.43-7.85,22.14,22.14,0,0,1,5.56-3l-.57-.87a21.37,21.37,0,0,0-3.56,1.75c-5.65,3.44-9.09,8.75-12.55,14.2-1.78,2.78-3.92,5.74-7.21,6.79a8.11,8.11,0,0,1-8-2.15c-4.8-4.48-5.11-11.37-1.49-16.64,3.82-5.58,10.43-8.58,16.68-10.58,3.2-1,6.5-1.86,9.73-2.89l-.55-.81c-6.5,2.09-13.43,3.55-19,6.85-4.79,2.85-9.44,7.29-10.32,13Zm53,17.31a39.74,39.74,0,0,1-9.5,8.32A42.18,42.18,0,0,1,278.5,360a27,27,0,0,1-19.28-5.77c-4.75-3.82-9-8.56-15.3-9.6a19.17,19.17,0,0,0-5.4-.11c.13.35.25.69.38,1a17.57,17.57,0,0,1,7.34.76c3.32,1.11,6.06,3.38,8.66,5.63a46.22,46.22,0,0,0,7.92,6,26.48,26.48,0,0,0,9,2.91,36.89,36.89,0,0,0,18.52-2.5c6.33-2.5,13.24-6.8,17.84-12.5Zm0,86.39c.93.5,1.85,1,2.75,1.4a32.11,32.11,0,0,1,8.8,3.42,28.44,28.44,0,0,0,3.53.76,45.06,45.06,0,0,0-9.71-4.56,26.39,26.39,0,0,0-5.36-1Zm5-77.53-.44-.78c-8.44,1.81-16.32,7.85-19.46,15.54-2.48,6.07-1,12,1.62,17.76a87.59,87.59,0,0,1,4.33,9.94,36,36,0,0,1,1.63,9.65,32.82,32.82,0,0,1-4.64,18l.78.54a32.65,32.65,0,0,0,4.58-13.51,36.4,36.4,0,0,0-2.51-17.84c-2.73-6.64-7.37-13.18-6-20.72,1.76-9,10.69-16.59,20.15-18.56Zm22.06,49.23a50,50,0,0,1-8.37,1.93c-3.4.42-7.5.27-9.5-3-1.44-2.36-1.18-5.39-.4-7.93,1.71-5.54,6.19-8.72,10.42-12.23-.11-.28-.24-.56-.37-.84-2.13,1.75-4.37,3.4-6.29,5.24-3.44,3.3-6,8.54-5.19,13.4,1,6.1,7.2,6.95,12.35,6.15a56.26,56.26,0,0,0,7.56-1.94,2.63,2.63,0,0,0-.17-.76Z" transform="translate(-11.39 -10.15)"/><path class="cls-8" d="M295.57,423.68c-23.84-16.7-45.09-45.83-45.09-45.83-2.07-7.13-34.92-95.17-44.26-123-3.45-10.29-4.38-17.92-2.78-22.15Z" transform="translate(-11.39 -10.15)"/><path class="cls-7" d="M248.86,440.85H54S93.85,286,159.7,221.85c8.83-8.6,43.22-7.15,51.15,5.8C240.56,276.22,249.4,440.16,248.86,440.85Z" transform="translate(-11.39 -10.15)"/><path class="cls-3" d="M224.08,354.07c-7.66,10.88.67,25.7,12.88,28.26a16.28,16.28,0,0,0,7.57-.25l.09,1a17,17,0,0,1-7,.42c-10.86-1.69-20-13.26-17.09-24.28,2.24-8.59,11-14.57,19.68-14.84a7.84,7.84,0,0,0,.14,1.07,16.62,16.62,0,0,0-2.23.18A21,21,0,0,0,224.08,354.07ZM62.36,413.29l-.3-.25c-.11.33-.21.66-.31,1,7.61,6.29,9.18,17.62,11.62,26.83h1C71.77,431.22,70.35,420.09,62.36,413.29Zm32.57-56c5.95-.38,12-2.37,15.62-7.36,2.8-3.85,4.26-9.27,2.19-13.77-2.4-5.21-8.26-6.59-13.5-6.46-2.27.05-4.51.27-6.74.52l-.42,1a42.65,42.65,0,0,1,11-.37c3.22.44,6.39,1.85,8.19,4.67a10.74,10.74,0,0,1,1.1,8.18c-1.52,6.55-6.86,10.68-13.22,12.06-5.63,1.22-11.36.56-17-.25l-.36.91A66.45,66.45,0,0,0,94.93,357.29Zm8.39,72.89c-5.68-1-14.8,4.42-17.86-3-2.3-5.56,1-11.77,4.52-15.95,4.29-5.07,9.83-8.86,15.3-12.55,10.1-6.83,34.57-27.74,22.89-36.6-10.89-8.25-24.88,15.82-33.07,23.37-7.24,6.66-17.84,12.69-28.2,12.54l-.3.89c10.47.18,20.82-5.78,28.6-12.23,10.24-8.48,20.33-30.53,32.16-23.77,9.82,5.61-8.49,25.28-18.63,32.27-5.11,3.53-10.42,6.84-15.08,11-4.12,3.66-8.16,8.18-9.41,13.7-.92,4.08-.45,9.32,3.7,11.46,2.64,1.37,5.63.85,8.42.32,3.51-.68,6.8-1.09,10.06.68a13.57,13.57,0,0,1,6.6,8.55h1.07v-.05c-1.37-5.07-5.53-9.65-10.8-10.62Zm71.29-123.43a14.78,14.78,0,0,0-16,.79c-5,3.54-8.07,9.26-10.42,14.78-2.62,6.17-5,13-10.1,17.57-2.76,2.49-7.11,4.67-10.5,2-2.21-1.74-3-4.81-3.13-7.52-.19-5.8,3.27-11.28,6.73-15.66,3.58-4.55,7.76-8.58,11.37-13.11,3.35-4.2,6.29-9,7.08-14.4.39-2.67,0-5.56-2.19-7.35a9,9,0,0,0-6.52-1.56c-5.68.55-10.53,4.68-14,9a49.73,49.73,0,0,0-5,7.83c-1.55,2.95-2.7,6.1-4.27,9-1.82,3.4-4.95,5.05-8.73,3.89a12.19,12.19,0,0,1-6.15-4.56c-.14.29-.28.58-.41.87,2.78,3.41,6.94,6.07,11.37,4.63,2.81-.92,4.32-3.46,5.48-6,1.34-3,2.64-5.93,4.22-8.77,3.17-5.71,7.58-11.56,13.84-14.09,2.63-1.06,6-1.49,8.61-.12,3.63,1.91,3.17,6.37,2.22,9.74-3.18,11.17-13.69,18.23-20,27.52-2.88,4.26-5.27,9.4-4.59,14.67.62,4.74,4,9.15,9.25,8,6.17-1.34,10.19-7.85,12.7-13.11,2.86-6,4.78-12.41,8.85-17.73s10.32-8.88,17.09-6.57c7.25,2.47,11.4,9.63,11.67,17,.5,13.47-9,24.62-18.68,32.75-9.32,7.81-19.85,14.17-28.47,22.82a63.41,63.41,0,0,0-17.73,35.47c-1.21,8.23-1.2,18.13,2.13,26.3h1.26a37.11,37.11,0,0,1-2.18-7.51c-2.56-13.74.56-28.62,7.44-40.67,6.63-11.61,17-19.56,27.6-27.39,9.28-6.89,19-14.07,24.87-24.28,6.28-10.77,7.77-27.24-4.79-34.22Zm32.47,63.59a19.68,19.68,0,0,0-8.43-15.46,14,14,0,0,0-15.51-.23c-4.81,3.08-7.92,8.53-9.11,14-1.73,8-.29,16.11-.13,24.13a80.35,80.35,0,0,1-12,43.59c-1,1.53-2,3-3.08,4.48h1.36a69.47,69.47,0,0,0,8.08-14.36,81.43,81.43,0,0,0,5.91-21.27c1.05-7.72.56-15.29.15-23-.39-7.42-.15-15.19,4.18-21.53,3.81-5.58,10.47-9,17.08-6.22s10.32,9.82,10.46,16.82c.4,14.47-10,26.62-17.13,38.27-3.4,5.54-6.45,11.4-7.88,17.78a36.5,36.5,0,0,0-.44,13.54h1a36,36,0,0,1,.88-15.31c3.67-13,13.24-23.21,19.35-35,3.21-6.28,5.64-13.16,5.2-20.22Zm29,44c-3.72-4.44-9.11-7.39-15-6.81-5.4.53-10.14,4-11.3,9.45-1.33,6.3,2,12.84,5.45,17.89,1.34,2,2.86,3.93,4.31,5.95h1.13c-2.72-3.9-5.77-7.6-7.84-11.91-3-6.24-4-14.8,3-18.81,5.91-3.41,13.19-1.43,17.9,3,5.1,4.86,7.49,11.8,8.91,18.53.63,3,1.11,6,1.59,9.14h.95c-1.46-9.43-2.88-19-9.13-26.45ZM174.63,216.7l-1.62.18a38.62,38.62,0,0,1-7.82,7,42.67,42.67,0,0,1-13.12,6l-1.22,1.38a32.31,32.31,0,0,0,3.35-.87C161.53,228,169.55,223.23,174.63,216.7Zm1.4,27.73a11.27,11.27,0,0,1-.87-7.74c1.12-5.08,5.18-10,10.5-10.85,6.89-1.12,12.33,4.94,18.35,7.13,3.06,1.12,6.9,1.45,9.82.08-.11-.24-.23-.47-.34-.69-2.61,1.32-5.87,1-8.59.09-6.12-2-11-7.63-17.81-7.55-9,.12-15.9,11.57-12,19.64,1.37,2.8,4,4.7,6.25,6.7a20.51,20.51,0,0,1,5.51,7.18A21,21,0,0,1,187,275a14.37,14.37,0,0,1-12.7,8.92,17.21,17.21,0,0,1-13.76-6.31,11.77,11.77,0,0,1-2.59-7c-.09-3.42,1.2-6.74,2-10,1.27-4.85,1.46-11.21-4.09-13.43-4.45-1.79-9.72.44-13.2,3.27-4.65,3.77-6.53,9.72-9.13,14.9-2.78,5.53-6.84,10.78-13.45,11.38-.42,0-.83.06-1.24.06l-.55,1h.26c5.34.05,9.8-2.73,12.89-7,3.64-5,5.2-11.2,8.72-16.3,3-4.33,9.43-8.33,14.85-6.62,7.89,2.49,3.93,12.25,2.63,17.71-1.18,4.93-.63,9.58,2.86,13.44,6.43,7.09,18.57,8,24.85.3,6.44-7.94,5.06-20.7-2.25-27.61-2.36-2.29-5.46-4.19-7.09-7.26Zm28.73,28.79c5.31,2,11.17-.45,15.55-3.48a32.38,32.38,0,0,0,5.12-4.45l-.24-.86c-.71.76-1.45,1.49-2.21,2.17-4.61,4.09-11.63,8.2-17.95,5.8-6.51-2.47-7.89-10.07-5.83-16,2.32-6.73,8.69-10.81,14.82-13.69q1.71-.79,3.45-1.53c-.09-.26-.2-.51-.31-.77-9.38,4.07-19.2,9.34-19.77,20.58C197.13,266.17,199.67,271.29,204.76,273.22ZM237.93,328a36.25,36.25,0,0,1-13.84,7.65c-7.15,2-14.4.26-18.94-5.83a29.56,29.56,0,0,1-4.36-9c-1.23-4-2.12-8.31-1-12.42,1.82-6.9,8.44-11.22,14.88-13.24,5.52-1.74,11.32-2.32,17-3.25-.07-.32-.13-.64-.19-1-2.34.42-4.67.79-6.94,1.13-6.75,1-13.68,2.4-19.18,6.7A17.28,17.28,0,0,0,198.47,315c.79,6.18,3.26,13,7.69,17.46s10.63,5.73,16.67,4.45a35.31,35.31,0,0,0,15.25-7.87A4.73,4.73,0,0,1,237.93,328Z" transform="translate(-11.39 -10.15)"/><path class="cls-6" d="M332.83,430.38c-14,14.5-41.94,15.79-121.71,18.72-11,.41-34.85-76.72-23.09-77.76,14.82-1.31,72.61-3.17,76.85-2.78C300.67,371.91,342.31,420.55,332.83,430.38Z" transform="translate(-11.39 -10.15)"/><path class="cls-6" d="M213.7,373.2s-31.43-7-49.08-5.55c-23.63,1.93-43.24,13.33-51.17,18.6-16.55,11-49,49-39.63,60.29,8.45,10.18,39.61-30.38,39.61-30.38s-38.6,36.11-26.18,46.5,45.92-38.76,45.92-38.76-38.82,38-24.32,46.68c11,6.57,43.81-36.23,43.81-36.23s-33.15,32.94-22.17,40.12c12.14,8,44.94-29.61,44.94-29.61,31,13.7,51.38,7.54,65.34,1.43C244.15,444.81,213.7,373.2,213.7,373.2Z" transform="translate(-11.39 -10.15)"/><path class="cls-5" d="M126,402.81c-4.69,4.08-9.46,8.18-13.77,12.66s-8.46,9.11-12.34,14c-9.5,11.93-13.58,20.88-13.27,20.35,7.39-12.42,22.57-28.7,26.88-33.18s8.38-9.16,12.68-13.64A.13.13,0,0,0,126,402.81Z" transform="translate(-11.39 -10.15)"/><path class="cls-5" d="M142.44,418.08c-5.76,5.46-11.68,10.68-17.2,16.4S115,446.06,109.93,452.12c-.39.46,0,.52.4.07,5.32-5.85,10.7-10.85,16.09-16.63s10.56-11.79,16.14-17.35C142.67,418.12,142.53,418,142.44,418.08Z" transform="translate(-11.39 -10.15)"/><path class="cls-5" d="M158.93,428.64c-9.23,7.9-17,17.5-24.38,27.09-.37.48.13.5.53,0,7.94-9.16,14.09-16.41,24.12-26.81C159.36,428.8,159.12,428.47,158.93,428.64Z" transform="translate(-11.39 -10.15)"/><path class="cls-7" d="M197.23,369.18l55.86,86.2S322.09,449,335,433c8.48-10.52-33.75-63.93-73.58-64.63Z" transform="translate(-11.39 -10.15)"/><path class="cls-3" d="M207.05,370.35a31.91,31.91,0,0,1-1.57,11.56l-.67-1a31.86,31.86,0,0,0,1.26-9.61,20.2,20.2,0,0,0-.18-2.19h1A10,10,0,0,1,207.05,370.35Zm15,37.15.6.92a16.9,16.9,0,0,1,11.07,4.76c5.1,4.86,7.49,11.8,8.91,18.53.71,3.33,1.22,6.78,1.75,10.25l1.24,1.92c-1.61-10.41-2.61-21.26-9.53-29.51-3.5-4.19-8.5-7.08-14-6.87ZM298.57,393c-2-4.79-4.93-9.52-5.91-14.62l-.93-.55a31,31,0,0,0,2.67,8.36,87.59,87.59,0,0,1,4.33,9.94,36,36,0,0,1,1.63,9.65c.4,13.17-6.81,26.08-19.95,29.78-11.82,3.33-25.23-1.78-28.54-14.31a22,22,0,0,1,1.67-15.94c3.35-6.21,9.55-8.12,15.73-10.57,5.09-2,11.07-5.72,11.44-11.84.29-5-3.73-8.32-8.2-9.43-5.72-1.43-10.92.47-15.95,3.13-6.11,3.23-12.38,7.26-19.6,5.74a20.55,20.55,0,0,1-14.9-13.45h-1.21a21.79,21.79,0,0,0,16.76,14.61c13,2,22.55-13,35.62-8.79,2.55.83,5,2.46,6,5,1.3,3.31-.16,6.76-2.47,9.21-5.06,5.34-13,5.64-18.8,9.81-8.23,5.92-9.72,18-5.54,26.72,4.93,10.35,17.29,13.87,27.83,11.08,11.93-3.16,19.53-13.76,20.85-25.75A36.42,36.42,0,0,0,298.58,393Zm25.56,12.89-.73-.9c-2.57-.07-5.09-.8-6.53-3.14a8.1,8.1,0,0,1-1-5.17l-.87-.87a12,12,0,0,0,0,3.68c.84,4.82,4.93,6.37,9.14,6.4ZM313,432.2c-4.72-1.4-10.26-1.65-14.82.46-4.86,2.24-6.92,7-6.25,12.22a39.31,39.31,0,0,0,1,4.58l.84-.16c-1-4.1-1.83-8.19.4-11.92,2.88-4.8,9.3-5.7,14.39-5.11,6.38.74,11.67,4.32,17.15,7.37l1.09-.55C322.29,436.58,317.93,433.65,313,432.2Z" transform="translate(-11.39 -10.15)"/><path class="cls-5" d="M306.06,387.83c-20.05-16.34-26.83-19.16-58.39-19.54-.26,0-.31.33,0,.34,34.61,1.56,50.59,14.35,58.21,19.46C306,388.21,306.24,388,306.06,387.83Z" transform="translate(-11.39 -10.15)"/><path class="cls-5" d="M273.62,445.67c-5.63-9.81-11.79-19.31-18-28.79s-12.35-19-18.77-28.31c-3.63-5.28-7.23-10.57-11-15.72-.1-.13-.35,0-.26.15,5.62,9.8,11.74,19.33,17.85,28.83s12.34,19,18.65,28.41q5.36,8,11,15.71C273.32,446.2,273.79,446,273.62,445.67Z" transform="translate(-11.39 -10.15)"/><path class="cls-8" d="M267.67,368.93h0l-46,38L197.2,369.18l64.16-.78c.75,0,1.51.05,2.27.1l3.59.39Z" transform="translate(-11.39 -10.15)"/><path class="cls-6" d="M136.18,275.13c-8.19,92.46,4.61,166.11,43.43,171.42,25.78,3.52,19.32-74.66,19.26-76.33-.2-5.72-3.17-53.43-21.45-105.33C157.31,207.8,139.84,233.82,136.18,275.13Z" transform="translate(-11.39 -10.15)"/><path class="cls-7" d="M136.18,275.13c-8.19,92.46,4.61,166.11,43.43,171.42,25.78,3.52,29.39-62.41,29.33-64.08-.21-5.72-13.24-65.68-31.52-117.58C157.31,207.8,139.84,233.82,136.18,275.13Z" transform="translate(-11.39 -10.15)"/><path class="cls-5" d="M179.66,271.47c5.65,17.41,10.79,35,15.78,52.6,4.75,17.67,9.82,35.32,12.8,53.39-6.77-31-20.15-74.9-28.58-106Z" transform="translate(-11.39 -10.15)"/><path class="cls-5" d="M184.44,275.79c1.28,5,2.24,10.33,1.06,15.39C185.65,286.11,184.71,280.85,184.44,275.79Z" transform="translate(-11.39 -10.15)"/><path class="cls-3" d="M140.27,254.5c-.45.65-.86,1.31-1.26,2q.31-1.38.66-2.73a17.64,17.64,0,0,1,3.1-3.3c3.48-2.83,8.75-5.06,13.2-3.27,5.55,2.22,5.36,8.58,4.09,13.43-.85,3.26-2.14,6.58-2,10a11.77,11.77,0,0,0,2.59,7,17.21,17.21,0,0,0,13.76,6.31,13.62,13.62,0,0,0,8.4-3.18c.11.31.21.62.31.94-6.61,5.1-16.77,3.64-22.46-2.63-3.49-3.86-4-8.51-2.86-13.44,1.3-5.46,5.26-15.22-2.63-17.71C149.7,246.17,143.26,250.17,140.27,254.5Zm9.38,36.73c.39-2.67,0-5.56-2.19-7.35a9,9,0,0,0-6.53-1.59,15,15,0,0,0-5.51,1.69c0,.35-.06.7-.08,1a15.92,15.92,0,0,1,2-.95c2.63-1.06,6-1.49,8.61-.12,3.63,1.91,3.17,6.37,2.22,9.74-2.33,8.18-8.59,14.16-14.23,20.42v1.34c2.87-3.29,5.92-6.42,8.64-9.84C145.93,301.43,148.86,296.64,149.65,291.23ZM179.44,341c6.21-10.79,7.7-27.26-4.86-34.24a14.78,14.78,0,0,0-16,.79c-5,3.54-8.07,9.26-10.42,14.78-2.62,6.17-5,13-10.1,17.57a14,14,0,0,1-4,2.57,7.45,7.45,0,0,0,.05,1.06c5.45-1.9,9.08-7.86,11.41-12.74,2.86-6,4.78-12.41,8.85-17.73s10.32-8.88,17.09-6.57c7.25,2.47,11.4,9.63,11.67,17,.5,13.47-9,24.62-18.68,32.75-8.87,7.43-18.83,13.55-27.2,21.58.07.47.14.94.22,1.4a160.42,160.42,0,0,1,17-14c9.38-6.83,19.09-14,25-24.22Zm22.43,49.5c3-5.75,5.27-12.11,5.23-18.64,0-.51,0-1,0-1.51a21.62,21.62,0,0,0-2-7.89,18.29,18.29,0,0,0-6.45-7.57,14,14,0,0,0-15.51-.23c-4.81,3.08-7.92,8.53-9.11,14-1.73,7.95-.29,16.11-.13,24.13a80.3,80.3,0,0,1-11.92,43.58c-.22.36-.45.71-.68,1.07.27.26.55.51.83.76a74.11,74.11,0,0,0,6.21-11.71,81.43,81.43,0,0,0,5.91-21.27c1.05-7.72.56-15.29.15-23-.39-7.42-.15-15.19,4.18-21.53,3.81-5.58,10.47-9,17.08-6.22s10.32,9.82,10.46,16.82c.4,14.47-10,26.62-17.13,38.27-3.4,5.54-6.45,11.4-7.88,17.78a36.8,36.8,0,0,0,.61,18.29c.1.36.22.72.33,1.08a4.72,4.72,0,0,0,1-.07,36.53,36.53,0,0,1-.49-21.07C186.19,412.53,195.76,402.29,201.87,390.5Z" transform="translate(-11.39 -10.15)"/><path class="cls-5" d="M134.42,287.81c-.11,22.57.47,45.17,2.34,67.65,2.37,28.13,9,87.43,45,90.23,5.64.34,10.84-.76,15.4-4.29,6.83-4.89,12.54-11.18,18-17.54C226,411,235.89,396.77,245,382.92l-2.19-2.23,2.27,2.15h0c-2.88,4.88-5.93,9.65-9,14.39-9.15,13.65-30.26,45-45.77,49.49-19,4.21-33.28-8.84-41-24.94-17-35.93-16-94.18-15-134Z" transform="translate(-11.39 -10.15)"/><path class="cls-5" d="M132.56,293.4c.48,4.28,1.18,8.41,1.64,12.69A27.18,27.18,0,0,1,132.56,293.4Z" transform="translate(-11.39 -10.15)"/><path class="cls-7" d="M200.41,271.29s-33.27-30.44-54.12-29l-17.19,16.3s-5.75,2.1-7.68-1.53c-4.75-9-6.37-31,12.11-45.92,16.93-13.69,52.66-12.2,76.59-6.74,23,5.24,36,18.23,29.49,33.32S200.41,271.29,200.41,271.29Z" transform="translate(-11.39 -10.15)"/><path class="cls-8" d="M202.46,264.23s25.5-19.53,27.83-30.69-20.17-21-34.61-24.65c-22.35-5.67-37.38-3.74-49.39,8.49S202.46,264.23,202.46,264.23Z" transform="translate(-11.39 -10.15)"/><path class="cls-6" d="M206.14,260.51c-11.92,1.5-30-18.41-36.31-33.66-.43-1,2.2-11.29,4.81-23.89,1.55-7.65,3.1-16.2,4-24.11.17-1.63,48.31,17.37,48.31,17.37s-6.65,16.06-8.05,29.86a18,18,0,0,0,0,3.28v.55C219.2,236.18,217.66,259.05,206.14,260.51Z" transform="translate(-11.39 -10.15)"/><path class="cls-5" d="M213.74,229.62a28.16,28.16,0,0,0,5.11.28v-.55a16.34,16.34,0,0,1,0-3.28c1.39-13.78,8-29.84,8-29.84s-39.08-15.43-47-17.3C180.51,188.23,184.55,225.84,213.74,229.62Z" transform="translate(-11.39 -10.15)"/><path class="cls-6" d="M162.81,139c-1.25,18.45,19.42,66.11,34.26,74.36,21.51,12,51,6.73,59.66-17.8,8.43-23.79-19.61-85.42-35.65-92.32C197.47,93.11,164.66,111.78,162.81,139Z" transform="translate(-11.39 -10.15)"/><path class="cls-9" d="M201.42,218.19h0" transform="translate(-11.39 -10.15)"/><path class="cls-5" d="M218.41,158.94c-.08-.11-.19.26-.13.39,1.48,3.18,2.64,7.06.19,9.37-.08.08,0,.23.1.17C221.93,166.85,220.32,161.71,218.41,158.94Z" transform="translate(-11.39 -10.15)"/><path class="cls-5" d="M214.1,156.81c-5.34,1.83-1.31,12.38,3.64,10.69S218.58,155.29,214.1,156.81Z" transform="translate(-11.39 -10.15)"/><path class="cls-5" d="M238.29,150.84c0-.14.31,0,.36.19,1.14,3.31,3,6.9,6.39,6.86a.1.1,0,0,1,0,.19C241.28,159,238.84,154.15,238.29,150.84Z" transform="translate(-11.39 -10.15)"/><path class="cls-5" d="M239.93,146.29c5.1-2.41,9.55,8,4.82,10.2S235.62,148.29,239.93,146.29Z" transform="translate(-11.39 -10.15)"/><path class="cls-5" d="M209.56,157.23a42,42,0,0,0,4.28-1.78c1.64-.7,3-1.09,4-2.65a2.38,2.38,0,0,0-.55-2.86c-1.77-1.41-4-1.05-6-.28a8.66,8.66,0,0,0-4.8,4C205.4,155.64,207.56,157.85,209.56,157.23Z" transform="translate(-11.39 -10.15)"/><path class="cls-5" d="M240.17,137.56a44.84,44.84,0,0,1-4.61.52c-1.77.18-3.17.5-4.8-.37a2.39,2.39,0,0,1-.92-2.77c.88-2.09,3-2.85,5.11-3.15a8.72,8.72,0,0,1,6.16,1.21C243,134.16,242.21,137.14,240.17,137.56Z" transform="translate(-11.39 -10.15)"/><path class="cls-5" d="M226.83,189.29c1.07.47,2.26,1.22,3.48.87a9.22,9.22,0,0,0,3.2-2.17.12.12,0,0,1,.17,0,.11.11,0,0,1,0,.13,4.73,4.73,0,0,1-3.47,3.37c-1.58.3-2.8-.7-3.68-1.91A.19.19,0,0,1,226.83,189.29Z" transform="translate(-11.39 -10.15)"/><path class="cls-5" d="M228.85,184.12c3.5-3.25,9-4.79,12.57-5.68.35-.2.41-1.08.33-1.46h0l-2.89-6.82c1.09.1,6.53.38,5.95-.89-4.82-10.5-10.18-22.18-17.19-31.62a.33.33,0,0,0-.44-.12.32.32,0,0,0-.12.44c4.23,10.27,10.24,19.74,14.66,30-1.7,0-4.51-.09-5.8.45-.32.23,3.43,7.06,3.74,8.22,0,0-7.36.59-11.41,6.11C227.19,184.15,227.17,185.67,228.85,184.12Z" transform="translate(-11.39 -10.15)"/><path class="cls-5" d="M173.44,184.29c8.06-.74,10.37-13.94,10.51-19.2s-7.24-24.83-6.28-33,8.53-13.53,15.2-14,17.42,4.44,21.69,2.36,1.7-12.08,4.78-13.25c6.78-2.57,16,11.4,20.06,18.37,0,0-8.75-34-44.73-24-32.81,9-34.72,34.83-33.85,45.43C162.47,167.21,173.44,184.29,173.44,184.29Z" transform="translate(-11.39 -10.15)"/><path class="cls-1" d="M221.61,180.52a14.88,14.88,0,1,1,8.72-21.82h0A14.9,14.9,0,0,1,225,179.06,14.6,14.6,0,0,1,221.61,180.52Zm-7.68-26.69A12.57,12.57,0,0,0,211,155.1a12.84,12.84,0,1,0,2.94-1.27Z" transform="translate(-11.39 -10.15)"/><path class="cls-1" d="M253,167.13c-5.47,1.58-12-2.59-15-9.75a17.75,17.75,0,0,1-1.13-10.81,9.9,9.9,0,0,1,5.58-7.2c2.8-1.18,6-.79,9.05,1.06a17.85,17.85,0,0,1,6.93,8.37c3.17,7.57,1.17,15.65-4.46,18A5.84,5.84,0,0,1,253,167.13ZM243.93,141a7.61,7.61,0,0,0-.72.25A7.92,7.92,0,0,0,238.8,147a15.83,15.83,0,0,0,1,9.58c2.76,6.55,8.74,10.32,13.37,8.37s6.14-8.85,3.39-15.41a15.82,15.82,0,0,0-6.12-7.44A8.19,8.19,0,0,0,243.93,141Z" transform="translate(-11.39 -10.15)"/><path class="cls-1" d="M230.53,160.48l-1.77-.91c1.35-2.62,5.18-7,10-4.81l-.81,1.81C233.63,154.61,230.66,160.29,230.53,160.48Z" transform="translate(-11.39 -10.15)"/><path class="cls-1" d="M170.93,189.67l-2-.16c.07-.92.83-9.1,4.65-11.48,3.57-2.22,29.12-10.24,30.2-10.58l.6,1.9c-7.33,2.29-27,8.64-29.75,10.36C172.09,181.29,171.07,187.43,170.93,189.67Z" transform="translate(-11.39 -10.15)"/><path class="cls-6" d="M186.16,178s-15.23-13.18-21.53-7.34,8.07,26.92,17.41,27.94S192.48,191,192.48,191Z" transform="translate(-11.39 -10.15)"/><path class="cls-5" d="M168.93,176.64a.12.12,0,0,0-.12.12.12.12,0,0,0,.12.12h0c6.6.91,11.16,5.66,14.82,10.85-2.34-1.76-5.07-2.36-7.5.51-.12.15.09.36.25.28,2.31-1.15,4.19-1.17,6.34.37a27,27,0,0,1,4,4c.42.46,1.31-.07.95-.63l-.08-.13C185.93,184.5,177.27,175.29,168.93,176.64Z" transform="translate(-11.39 -10.15)"/><path class="cls-7" d="M202.46,264.23s-27.29-42.86-59.69-46.11l3.52,24.17s19.24-.6,54.12,29Z" transform="translate(-11.39 -10.15)"/><path class="cls-5" d="M137.61,243c5.88-.93,11.79.18,17.39,1.74a77.26,77.26,0,0,1,16.1,6.87,131.47,131.47,0,0,1,14.77,9.49l6.93,5.43,6.69,5.75.75.65.8-.44a149.59,149.59,0,0,0,17-11.07,83.47,83.47,0,0,0,7.82-6.48,52.08,52.08,0,0,0,6.77-7.53C228,252.33,222.54,256.22,217,260c-2.78,1.85-5.64,3.59-8.53,5.26s-5.79,3.36-8.73,4.87l1.54.2-6.7-6c-2.31-1.89-4.67-3.73-7-5.56a79.86,79.86,0,0,0-7.44-5,80.13,80.13,0,0,0-7.85-4.4,70.61,70.61,0,0,0-16.89-6.2c-1.45-.36-2.95-.56-4.43-.81a29.4,29.4,0,0,0-4.49-.33A26.62,26.62,0,0,0,137.61,243Z" transform="translate(-11.39 -10.15)"/><path class="cls-5" d="M129.1,258.59a88.34,88.34,0,0,0,9.09-7.64,86.41,86.41,0,0,0,8.1-8.68,85.09,85.09,0,0,0-9.1,7.63A89.78,89.78,0,0,0,129.1,258.59Z" transform="translate(-11.39 -10.15)"/><path class="cls-7" d="M190.11,255.69a176.85,176.85,0,0,0-.42,30.7c.47,7.14,5.43,32.45,13.27,30.84s-6.49-17-9.93-30.26c-3.48-13.48-.68-23.46-.9-31.57Z" transform="translate(-11.39 -10.15)"/><g class="cls-10"><path d="M190.11,255.69a176.85,176.85,0,0,0-.42,30.7c.47,7.14,5.43,32.45,13.27,30.84s-6.49-17-9.93-30.26c-3.48-13.48-.68-23.46-.9-31.57Z" transform="translate(-11.39 -10.15)"/></g><path class="cls-7" d="M216.85,257a162.65,162.65,0,0,1,8.24,26.59c1.43,6.33,3.62,29.62-3.61,30.23s1.28-16.43.86-28.87c-.41-12.62-5.41-20.62-7.32-27.69Z" transform="translate(-11.39 -10.15)"/><g class="cls-10"><path d="M216.85,257a162.65,162.65,0,0,1,8.24,26.59c1.43,6.33,3.62,29.62-3.61,30.23s1.28-16.43.86-28.87c-.41-12.62-5.41-20.62-7.32-27.69Z" transform="translate(-11.39 -10.15)"/></g><path class="cls-6" d="M186.83,440.94c21.28-3.27,56.15-51.21,78.25-106,4.21-10.43-76.77-52.6-80-41-10.28,37.21-30.41,85.88-29.76,115.9C155.85,433.18,172.12,443.21,186.83,440.94Z" transform="translate(-11.39 -10.15)"/><path class="cls-6" d="M224.71,254.45c-5.16-6.32-6-24-10.58-34.42s-18.2-15.31-20.59-11.48,1.15,7.69,2.26,24.81c.71,11-7.72,33-4.12,53C193.49,296.39,229.93,260.77,224.71,254.45Z" transform="translate(-11.39 -10.15)"/><path class="cls-6" d="M224.71,254.45c-5.16-6.32-6-24-10.58-34.42s-18.2-15.31-20.59-11.48,1.15,7.69,2.26,24.81c.71,11-7.72,33-4.12,53C193.49,296.39,229.93,260.77,224.71,254.45Z" transform="translate(-11.39 -10.15)"/><path class="cls-11" d="M224.71,254.45c-5.16-6.32-6-24-10.58-34.42s-18.2-15.31-20.59-11.48,1.15,7.69,2.26,24.81c.71,11-7.72,33-4.12,53C193.49,296.39,229.93,260.77,224.71,254.45Z" transform="translate(-11.39 -10.15)"/><path class="cls-6" d="M264.93,200.68c7.23,6.74-10.91,23.15-10.91,23.15s6.59-1.78,12.32,1.42c6.56,3.65,3.7,15.55,3.7,15.55s7-.42,12.76,3.56c5.93,4.14,4.75,16.55,4.75,16.55s6.78,3.22,9.24,10.2c4.22,11.95-9,26.28-15.4,36.77C274.52,319.11,265.9,333.05,261,340l-77.45-39.4s13.27-59.23,23.78-69.37C216.18,222.66,253.93,190.37,264.93,200.68Z" transform="translate(-11.39 -10.15)"/><path class="cls-5" d="M253.71,223.78c-11.6,6.82-21.54,16.4-31,25.75a.23.23,0,0,0,.33.33c9.33-9.41,21.4-16.55,31.08-25.57a.33.33,0,0,0-.41-.51Z" transform="translate(-11.39 -10.15)"/><path class="cls-5" d="M269.1,240.37c-2.58,1.62-4.61,4.09-6.65,6.31-2.2,2.39-4.36,4.83-6.47,7.29q-6.36,7.41-12.35,15.11c-.18.23.13.56.33.33,4.23-4.91,8.54-9.76,13-14.48q3.33-3.54,6.72-7c2.09-2.17,4.49-4.28,6.07-6.88a.47.47,0,0,0-.65-.68Z" transform="translate(-11.39 -10.15)"/><path class="cls-5" d="M287.4,261.11c-2.3,1.32-4,4-5.69,6q-2.82,3.45-5.69,6.84c-3.82,4.53-7.64,9.06-11.62,13.46-.2.22.13.55.33.33,4.06-4.45,8.18-8.84,12.2-13.33q3-3.3,5.89-6.64c1.66-1.89,3.95-4.06,4.81-6.47a.16.16,0,0,0-.1-.2A.19.19,0,0,0,287.4,261.11Z" transform="translate(-11.39 -10.15)"/><path class="cls-5" d="M256.32,198.67c-13.15,5.44-28.91,17-38.15,24.18a128,128,0,0,0-9.91,8.54c-3.06,3.07-5.06,7-7,10.85-1.33,2.61-2.46,5.32-3.58,8,2-7,4.4-14.44,9.38-20a99.6,99.6,0,0,1,9.94-8.87c9.3-7.15,18.84-14.4,29.66-19.07Z" transform="translate(-11.39 -10.15)"/><path class="cls-7" d="M168.42,315.55l76.65,67.33S205,447.66,186.3,446.39s-39-13.37-37.47-58.3C149.2,376.84,168.42,315.55,168.42,315.55Z" transform="translate(-11.39 -10.15)"/><path class="cls-3" d="M154.57,365.29l-1,.72c.14-.54.29-1.08.43-1.63,3.55-2.63,7.1-5.27,10.48-8.11,8.53-7.14,16.88-16.62,18.43-28l.76.67a35.9,35.9,0,0,1-4.27,12C173.56,351.21,163.85,358.39,154.57,365.29Zm44.05-10.39a14,14,0,0,0-15.51-.23c-4.81,3.08-7.92,8.53-9.11,14-1.73,7.95-.29,16.11-.13,24.13A80.23,80.23,0,0,1,162.16,436c.27.28.55.55.83.81a77.92,77.92,0,0,0,5.31-10.32,81.43,81.43,0,0,0,5.91-21.27c1-7.72.56-15.29.15-23-.39-7.42-.15-15.19,4.18-21.53,3.81-5.58,10.47-9,17.08-6.22s10.31,9.83,10.45,16.83c.4,14.47-10,26.62-17.13,38.27-3.4,5.54-6.45,11.4-7.88,17.78a36.8,36.8,0,0,0,.61,18.29,1.83,1.83,0,0,0,.08.25l1.07.17a36.4,36.4,0,0,1-.3-20.48c3.67-13,13.24-23.21,19.35-35,3.19-6.19,5.62-13.09,5.18-20.15a19.67,19.67,0,0,0-8.43-15.53Zm22.46,52.67c-5.4.53-10.14,4-11.3,9.45-.82,3.9.14,7.9,1.81,11.57.23-.27.48-.54.72-.81-2.57-6.1-3-13.88,3.52-17.64a13.73,13.73,0,0,1,11.31-.92c.2-.27.39-.54.6-.81a15.4,15.4,0,0,0-6.66-.85Zm23.16-25.41a16.26,16.26,0,0,1-7.31.13c-9.44-2-16.56-11.28-15.77-20.42l-1-.91c-1.55,10.45,7.17,20.9,17.45,22.5a17.35,17.35,0,0,0,7.41-.53l0-.09Z" transform="translate(-11.39 -10.15)"/><path class="cls-5" d="M167.57,343.4c3.75,3.13,7.25,6.59,10.81,9.93s7.1,6.73,10.59,10.16q10.46,10.29,20.75,20.73c1.87,1.91,3.74,3.82,5.58,5.77s3.67,4.41,5.66,6.46a.19.19,0,0,1-.05.25.18.18,0,0,1-.2,0c-1.74-1.65-3.72-3.06-5.5-4.68s-3.65-3.4-5.45-5.13q-5.28-5.08-10.52-10.22c-7-6.84-13.93-13.73-20.68-20.79-3.81-4-7.78-7.92-11.35-12.13a.24.24,0,0,1,0-.35A.25.25,0,0,1,167.57,343.4Z" transform="translate(-11.39 -10.15)"/><path class="cls-5" d="M177.1,323.18l-8.86-7.42.43-.12c-4.21,15.88-8.86,31.64-13.22,47.47q-3,10.27-5,20.8a113.46,113.46,0,0,0-.08,27.5,86.08,86.08,0,0,1-2.1-27.75c2.17-15.35,7.09-30.16,11.67-44.91,2.61-7.95,5.37-15.84,8.36-23.66l.29.26,8.5,7.83Z" transform="translate(-11.39 -10.15)"/></g><g id="freepik--Plant--inject-40"><path class="cls-7" d="M402.26,342c-13.12,17.76-26.79,38.37-30.12,60.64,0,.33.5.44.58.11a133,133,0,0,1,5.8-17.83c8.62-2.37,17.08-4.32,21.61-12.88,4.62-8.8,4-20.26,3.15-29.85C403.22,341.72,402.52,341.72,402.26,342Z" transform="translate(-11.39 -10.15)"/><path class="cls-5" d="M378.65,384.77c5.89-13.22,13.45-26.49,23.06-37.36a.08.08,0,0,1,.1,0,.08.08,0,0,1,0,.11c-6.29,7.75-11.08,16.18-15.75,24.76,4.35-4.41,9.1-8.36,13.22-13,.08-.1.21,0,.13.13-4.09,4.9-8.55,10.22-13.86,13.85q-2.15,3.94-4.33,7.91c.36-.2.73-.38,1.09-.56.07,0,.12.07.06.1-.41.21-.81.42-1.23.6-.69,1.25-1.37,2.5-2.08,3.75C378.91,385.29,378.52,385.05,378.65,384.77Z" transform="translate(-11.39 -10.15)"/><path class="cls-5" d="M383,380.16a79.82,79.82,0,0,0,10.07-6.72c.08-.07.21,0,.12.12a53.83,53.83,0,0,1-10,6.85C383,380.49,382.87,380.25,383,380.16Z" transform="translate(-11.39 -10.15)"/><path class="cls-7" d="M370.62,399.35c0,.27.49.26.48,0,.07-7.33,0-14.7.12-22.07,1.88-3.79,5.91-5.89,8.72-8.92a39.58,39.58,0,0,0,5.23-7.29,52.36,52.36,0,0,0,6.07-20.23C392,333,389,307.11,385.73,308c-1.72.46-7.27,13.29-8.74,17.52a122.13,122.13,0,0,0-5.22,21.5C369.09,364.26,369.33,382,370.62,399.35Z" transform="translate(-11.39 -10.15)"/><path class="cls-5" d="M370.57,367.72h0c.4-9.28,2.49-18.65,4.44-27.65,2.11-9.7,4.58-18.83,9.57-27.48.09-.16.33,0,.24.15a102.2,102.2,0,0,0-7.68,21.09c.34-.53.74-1,1.09-1.52.14-.19.46,0,.32.19a13.49,13.49,0,0,1-1.56,2.2h-.06c-1.72,6.93-2.95,14-4,21.09l.24-.27c.05-.06.14,0,.11.08-.13.24-.28.47-.42.71-.54,3.59-1,7.17-1.52,10.72,6.39-5.46,11.84-11.9,14.92-19.84h.06c-3,8.23-7.77,15.54-15.09,20.54-.13,1-.26,1.91-.4,2.86,0,.2-.34.15-.34,0,0-.85,0-1.7.08-2.54a.19.19,0,0,1-.07-.26A.23.23,0,0,1,370.57,367.72Z" transform="translate(-11.39 -10.15)"/><path class="cls-5" d="M373.58,354.26c4.89-7.29,9.45-14.37,13-22.42,0-.09.2,0,.16.06-3,8-7.23,16.12-12.93,22.55C373.71,354.58,373.48,354.41,373.58,354.26Z" transform="translate(-11.39 -10.15)"/><path class="cls-5" d="M380.07,330c2-3.58,4.16-7.07,6.06-10.72.06-.1.2,0,.15.09a55.5,55.5,0,0,1-5.89,10.81C380.25,330.4,380,330.24,380.07,330Z" transform="translate(-11.39 -10.15)"/><path class="cls-5" d="M379.33,331.59v.07S379.24,331.59,379.33,331.59Z" transform="translate(-11.39 -10.15)"/><path class="cls-7" d="M365.66,378.14A74.75,74.75,0,0,1,364,392.59c.07.52.15,1,.22,1.58a68.75,68.75,0,0,0,2.59-16.11.5.5,0,0,0,0-.5h0a106.51,106.51,0,0,0-1.6-21.84c-2.27-13.47-7.23-26.41-16.63-36.51a.67.67,0,0,0-.95.14.18.18,0,0,0-.05.07c-3.79,9.65-2.47,21.16.76,30.78a56.17,56.17,0,0,0,7.46,14.61C358.93,369.35,363,373.18,365.66,378.14Z" transform="translate(-11.39 -10.15)"/><path class="cls-5" d="M349.64,323.72c8.91,14.46,15.11,31.6,15.86,48.68,0,.3-.49.38-.53.07-.21-1.53-.45-3.05-.69-4.56h0c-3.69-3.53-7.47-7.25-10.11-11.67,0-.07.07-.17.13-.09a124,124,0,0,0,9.82,10.68q-1-5.65-2.29-11.15c-.24-.28-.47-.56-.71-.83s.11-.45.27-.26l.21.23A127.47,127.47,0,0,0,356.94,340c-2.26-2.7-4.8-5-6.45-8.3a.06.06,0,0,1,0-.09.05.05,0,0,1,.08,0c1.33,1.87,2.61,3.74,4.12,5.47.6.69,1.26,1.33,1.88,2a114.09,114.09,0,0,0-7.28-15.21.2.2,0,0,1,.31-.2Z" transform="translate(-11.39 -10.15)"/><path class="cls-5" d="M351.44,341.56c2.88,3.87,6.16,7.57,8.84,11.58.08.11-.09.23-.19.14-3.44-3.23-6.35-7.63-8.84-11.61C351.17,341.55,351.33,341.44,351.44,341.56Z" transform="translate(-11.39 -10.15)"/><path class="cls-5" d="M360.68,354l.12.13c.09.08,0,.21-.13.13l-.12-.12C360.46,354.08,360.6,354,360.68,354Z" transform="translate(-11.39 -10.15)"/><path class="cls-7" d="M335.68,351.52c.72,7.44,4.63,16.32,9.4,22.05a23.43,23.43,0,0,0,7.63,5.95c3.3,1.64,6.76,3.52,10.17,4.86a66.08,66.08,0,0,1,3.6,12.79l.33-1.13c-2.19-18.83-14.38-34.93-30-45.26a.75.75,0,0,0-1,.26A.73.73,0,0,0,335.68,351.52Z" transform="translate(-11.39 -10.15)"/><path class="cls-5" d="M341.07,357.08a.13.13,0,0,1,.16-.2,63.7,63.7,0,0,1,19.86,24.48c.11.25-.24.48-.39.22-.72-1.27-1.46-2.5-2.21-3.72h0c-3.56-.67-6.93-3.18-9.57-5.56-.07-.06,0-.16.1-.1a21.77,21.77,0,0,0,4.51,3.16,47.71,47.71,0,0,0,4.52,1.79q-2-3.13-4.13-6a41.52,41.52,0,0,1-10.69-6,.1.1,0,0,1,.07-.19l0,0a102.89,102.89,0,0,0,9.94,5.31,92.36,92.36,0,0,0-7-8.18c-1.21-.64-2.44-1.28-3.61-2a.1.1,0,0,1,0-.14.12.12,0,0,1,.11,0,13.19,13.19,0,0,1,2.77,1.36C344.07,359.86,342.62,358.45,341.07,357.08Z" transform="translate(-11.39 -10.15)"/><path class="cls-5" d="M341.4,363.58a5,5,0,0,1,.6.43c.06,0,0,.13-.08.1a6,6,0,0,1-.59-.39C341.19,363.72,341.33,363.51,341.4,363.58Z" transform="translate(-11.39 -10.15)"/><polygon class="cls-12" points="379.75 427.81 337.02 427.81 340.48 388.91 341.24 380.33 375.55 380.33 376.3 388.91 379.75 427.81"/><polygon class="cls-5" points="376.3 388.91 340.48 388.91 341.24 380.33 375.55 380.33 376.3 388.91"/><rect class="cls-12" x="339.19" y="374.33" width="38.39" height="8.49"/></g><g id="freepik--speech-bubble--inject-40"><path class="cls-3" d="M323.25,155.85c.92,8.47-7.11,15.93-17.95,16.65s-20.37-5.56-21.3-14,7.1-15.91,17.92-16.65,20.38,5.53,21.32,14Z" transform="translate(-11.39 -10.15)"/><path class="cls-5" d="M323.25,155.85c1.69,13.69-19.15,22.36-32.83,13.59-8.66-5.63-9.84-15.68-2.64-22.45l.14-.13C299.46,136.37,321.91,142.11,323.25,155.85Zm0,0c-1.53-13.41-23.32-18.62-34.09-8.18-6.51,6.29-5.51,15.48,2.27,20.82,12.89,8.81,33.24.76,31.8-12.64Z" transform="translate(-11.39 -10.15)"/><path class="cls-3" d="M271.05,171.84c.51,4.71-3.95,8.86-10,9.26s-11.33-3.08-11.85-7.8,3.94-8.86,10-9.27S270.52,167.13,271.05,171.84Z" transform="translate(-11.39 -10.15)"/><path class="cls-5" d="M271.05,171.84c.51,4.92-4.17,9.24-10.47,9.65s-11.83-3.26-12.34-8.19a7.8,7.8,0,0,1,2.87-6.69c4.26-3.68,11.52-4,16.22-.63a8.5,8.5,0,0,1,3.72,5.81Zm0,0c-1.66-10.83-21.69-9.39-20.9,1.47C251.75,184.06,271.8,182.78,271.05,171.84Z" transform="translate(-11.39 -10.15)"/><path class="cls-3" d="M495.27,89.81c3.83,24.66-18.65,47.08-50.19,50.07a72.38,72.38,0,0,1-29.27-3.2c-16.2,16.54-46.49,19.69-67.65,7a44.15,44.15,0,0,1-9.11-7.16,44.5,44.5,0,0,1-6.45,1.06c-21.45,2.05-41-9.9-43.58-26.68-1.17-7.51,1.26-15.09,6.81-21.28-19.66-19.51-15.36-47.79,9.59-63.16,19.68-12.12,47.13-12.89,67.87-1.9,16.64-16.27,47-18.91,67.82-5.89a39.71,39.71,0,0,1,15,16.18,37.54,37.54,0,0,1,6.18-1.1c17.31-1.66,33.06,8,35.17,21.5,1.12,7.15-1.81,14.32-8,19.64A37.39,37.39,0,0,1,495.27,89.81Z" transform="translate(-11.39 -10.15)"/><path class="cls-5" d="M495.27,89.81c3.85,24.76-18.71,47.27-50.38,50.27a72.46,72.46,0,0,1-29.21-3.15l.39-.09c-16.31,16.73-46.89,19.95-68.29,7.19a44.86,44.86,0,0,1-9.2-7.19l.64.16a44.72,44.72,0,0,1-9,1.22c-33.11,1.6-54-27.7-35-49v.8c-28.37-27.82-5.88-69.59,39.29-73.47a70.87,70.87,0,0,1,39.14,7.61l-.77.1c23.47-22.9,70.43-17,83.56,10.48l-.35-.13a34.51,34.51,0,0,1,7.68-1.16c17.47-1,32.68,9.24,34,22.9.65,6.8-2.32,13.51-8.2,18.55a36.2,36.2,0,0,1,5.77,14.87Zm0,0a37.59,37.59,0,0,0-5.86-14.92C501,64.79,499.9,49.26,487,40.2c-8.44-5.91-20.29-7.81-31-5-12.91-27.08-59.22-33-82.24-10.28l-.32.32L373,25a69.21,69.21,0,0,0-38.33-7.34c-43.9,4-65.34,44.44-38.11,71.57l.39.39-.35.4c-18.42,20.41,1.65,48.66,33.56,47.24a44.61,44.61,0,0,0,9.17-1.25c15.74,16.57,45.68,20,66.87,7.72a44.56,44.56,0,0,0,9.4-7.22l.16-.16.23.09c29.22,9.63,62.9-1.09,75.22-23.94a36.07,36.07,0,0,0,4.11-22.7Z" transform="translate(-11.39 -10.15)"/></g><text class="cls-13" transform="translate(286.21 51.28) scale(0.58 1)">1.) H<tspan class="cls-14" x="33.62" y="0">o</tspan><tspan x="43.38" y="0">w </tspan><tspan class="cls-15" x="60.44" y="0">t</tspan><tspan class="cls-16" x="66.29" y="0">o</tspan><tspan class="cls-17" x="76.18" y="0"> </tspan><tspan class="cls-18" x="79.25" y="0">T</tspan><tspan class="cls-19" x="87.39" y="0">r</tspan><tspan class="cls-20" x="93.19" y="0">a</tspan><tspan class="cls-21" x="101.72" y="0">v</tspan><tspan x="110.19" y="0">el </tspan><tspan class="cls-22" x="127.28" y="0">L</tspan><tspan class="cls-16" x="135.52" y="0">ocally on </tspan><tspan class="cls-23" x="206.62" y="0">P</tspan><tspan x="215.92" y="0">ublic</tspan><tspan class="cls-17" x="252.61" y="0"> </tspan><tspan class="cls-18" x="255.69" y="0">T</tspan><tspan class="cls-19" x="263.82" y="0">r</tspan><tspan x="269.62" y="0">anspo</tspan><tspan class="cls-24" x="315.54" y="0">r</tspan><tspan x="321.85" y="0">t?</tspan><tspan x="0" y="18.74">2.)</tspan><tspan class="cls-25" x="18.07" y="18.74"> </tspan><tspan class="cls-19" x="21.24" y="18.74">W</tspan><tspan class="cls-26" x="36.38" y="18.74">hich a</tspan><tspan class="cls-21" x="81.13" y="18.74">r</tspan><tspan x="86.83" y="18.74">eas a</tspan><tspan class="cls-27" x="124.14" y="18.74">r</tspan><tspan x="129.85" y="18.74">e sa</tspan><tspan class="cls-28" x="158.49" y="18.74">f</tspan><tspan x="163.51" y="18.74">e </tspan><tspan class="cls-15" x="176.34" y="18.74">t</tspan><tspan class="cls-16" x="182.19" y="18.74">o st</tspan><tspan class="cls-29" x="208.98" y="18.74">a</tspan><tspan x="217.51" y="18.74">y or visit?</tspan><tspan x="0" y="37.48">3.)</tspan><tspan class="cls-25" x="18.07" y="37.48"> </tspan><tspan class="cls-19" x="21.24" y="37.48">W</tspan><tspan class="cls-26" x="36.38" y="37.48">he</tspan><tspan class="cls-27" x="55.38" y="37.48">r</tspan><tspan x="61.09" y="37.48">e </tspan><tspan class="cls-30" x="73.92" y="37.48">t</tspan><tspan x="79.77" y="37.48">o e</tspan><tspan class="cls-31" x="102.49" y="37.48">a</tspan><tspan x="111.09" y="37.48">t cheap but good local </tspan><tspan class="cls-28" x="283.33" y="37.48">f</tspan><tspan x="288.36" y="37.48">ood?</tspan></text><text x="-11.39" y="-10.15"/><text x="-11.39" y="-10.15"/></svg>